<?xml version="1.0" encoding="utf-8"?>
<!-- Generator: Adobe Illustrator 24.0.0, SVG Export Plug-In . SVG Version: 6.00 Build 0)  -->
<svg version="1.1" id="Capa_1" xmlns="http://www.w3.org/2000/svg" xmlns:xlink="http://www.w3.org/1999/xlink" x="0px" y="0px"
	 viewBox="0 0 58 58" style="enable-background:new 0 0 58 58;" xml:space="preserve">
<style type="text/css">
	.st0{fill:#64DD17;}
	.st1{fill:#FFEA00;}
	.st2{fill:#FF1744;}
</style>
<g>
	<path class="st0" d="M52.2,44.2c-1-0.3-2-0.3-3-0.1c-0.6,0.1-1.3,0-1.8-0.4l-1.4-1.1c-0.8-0.6-1-1.7-0.6-2.6
		c0.4-0.8,0.7-1.7,0.9-2.6c0.4-1.5,2-2.4,3.4-1.8c1.5,0.6,3.3,0.6,4.9-0.3c2.8-1.4,4-4.9,2.7-7.8c-1.4-3.1-5-4.4-8-3
		c-0.3,0.1-0.6,0.3-0.9,0.5c-1.4,1-3.2,0.6-4-0.8c-0.5-0.9-1.2-1.7-1.9-2.6c-0.9-1.1-1-2.6-0.4-3.9l1.5-2.9c0.5-1.1,1.6-1.9,2.8-2
		c0.6-0.1,1.2-0.2,1.9-0.5c1.9-0.9,3.3-2.6,3.5-4.7c0.5-4-2.9-7.3-6.9-6.7c-2.5,0.4-4.6,2.4-5,4.9c-0.2,1.2,0,2.4,0.4,3.4
		c0.5,1,0.5,2.2,0,3.2l-1.2,2.2c-0.8,1.6-2.6,2.4-4.3,1.9c-1-0.3-2.7-0.5-3.9-0.6c-0.8-0.1-1.4-0.6-1.6-1.4l-1.1-4.8
		c-0.1-0.6,0-1.2,0.4-1.7c0.9-1.1,1.4-2.6,1.1-4.2c-0.4-1.9-1.9-3.5-3.8-3.9C22.8-0.6,20,1.9,20,5c0,2.1,1.4,4,3.3,4.7
		c0.6,0.2,1.1,0.7,1.2,1.3l0.9,3.9c0.2,0.9-0.3,1.8-1.2,2.2c-1.3,0.5-2.5,1.1-3.6,1.8c-0.8,0.5-1.9,0.5-2.6-0.1
		c-0.8-0.7-1-1.7-0.6-2.6c0.6-1.5,0.8-3.2,0.4-4.9c-0.7-3-3.2-5.4-6.2-6C5.9,4.1,1.1,8.9,2.2,14.6c0.6,3.2,3.2,5.7,6.4,6.3
		c1.4,0.3,2.8,0.1,4-0.3c0.8-0.3,1.8,0,2.3,0.7l0.4,0.5c0.6,0.7,0.6,1.7,0.2,2.5c-1.2,2-2,4.2-2.3,6.6c-0.1,1-0.9,1.8-1.9,1.9
		l-1.9,0.2c-0.6,0.1-1.3-0.2-1.7-0.7c-0.7-0.7-1.7-1.2-2.8-1.3c-1.8-0.1-3.5,0.9-4.3,2.5c-1.3,2.7,0.2,5.7,2.9,6.4
		c1.9,0.5,3.9-0.4,4.9-2c0.4-0.6,1-0.9,1.7-1l1.6-0.1c1-0.1,1.9,0.5,2.2,1.5c0.7,2.1,1.7,4,3.1,5.6c0.5,0.6,0.5,1.4-0.1,2
		c-0.4,0.5-1.1,0.6-1.7,0.4C14.5,46,13.7,46,13,46c-2.5,0.2-4.6,2.2-4.9,4.7c-0.5,3.7,2.8,6.9,6.5,6.2c2-0.4,3.6-1.9,4.2-3.8
		c0.3-0.9,0.3-1.8,0.1-2.7c-0.1-0.5,0.1-1,0.4-1.3l0.8-0.9c0.5-0.5,1.2-0.7,1.9-0.3c0.5,0.3,1,0.5,1.5,0.7c1.1,0.5,1.7,1.6,1.6,2.8
		c-0.1,0.6,0,1.2,0.1,1.8c0.5,2.5,2.7,4.4,5.2,4.7c3.6,0.4,6.6-2.4,6.6-6c0-0.4,0-0.8-0.1-1.1c-0.2-1.2,0.3-2.4,1.3-3
		c1-0.5,1.9-1.2,2.8-1.9c0.5-0.4,1.2-0.7,1.9-0.5c1.4,0.3,2,1.7,1.5,2.8c-0.4,1-0.5,2.2-0.3,3.4c0.5,2.7,2.7,4.9,5.5,5.3
		c4.2,0.6,7.8-2.9,7.4-7.1C56.7,47.2,54.8,44.9,52.2,44.2z"/>
	<circle class="st1" cx="33" cy="25" r="1"/>
	<circle class="st2" cx="22" cy="37" r="1"/>
	<circle class="st1" cx="42" cy="40" r="1"/>
	<circle class="st2" cx="49" cy="30" r="1"/>
	<circle class="st2" cx="38" cy="21" r="1"/>
	<circle class="st2" cx="31" cy="42" r="5"/>
	<circle class="st2" cx="23" cy="28" r="3"/>
	<circle class="st2" cx="40" cy="31" r="3"/>
	<circle class="st1" cx="31.5" cy="45.5" r="1.5"/>
	<circle class="st1" cx="13.5" cy="54.5" r="1.5"/>
	<circle class="st1" cx="5.5" cy="33.5" r="1.5"/>
	<circle class="st1" cx="4.5" cy="12.5" r="1.5"/>
	<circle class="st1" cx="23.5" cy="4.5" r="1.5"/>
	<circle class="st1" cx="47.5" cy="9.5" r="1.5"/>
	<circle class="st1" cx="50.5" cy="54.5" r="1.5"/>
	<circle class="st1" cx="54.5" cy="27.5" r="1.5"/>
	<circle class="st1" cx="32.5" cy="54.5" r="1.5"/>
	<circle class="st1" cx="40.5" cy="29.5" r="1.5"/>
	<circle class="st1" cx="22.5" cy="29.5" r="1.5"/>
</g>
</svg>
